<svg width="60" height="60" viewBox="0 0 60 60" fill="none" xmlns="http://www.w3.org/2000/svg">
<path d="M54.275 23.225L44.275 13.225C44.0419 12.9919 43.7652 12.807 43.4606 12.6808C43.1561 12.5547 42.8296 12.4897 42.5 12.4897C41.8342 12.4897 41.1958 12.7542 40.725 13.225C40.2542 13.6957 39.9898 14.3342 39.9898 15C39.9898 15.6657 40.2542 16.3042 40.725 16.775L46.475 22.5H17.5C16.837 22.5 16.2011 22.7634 15.7322 23.2322C15.2634 23.701 15 24.3369 15 25C15 25.663 15.2634 26.2989 15.7322 26.7677C16.2011 27.2366 16.837 27.5 17.5 27.5H52.5C52.9936 27.4975 53.4753 27.349 53.8847 27.0732C54.294 26.7973 54.6125 26.4065 54.8 25.95C54.9915 25.4947 55.0438 24.9929 54.9503 24.5079C54.8569 24.023 54.6219 23.5765 54.275 23.225Z" fill="#AC79D6"/>
<path d="M42.5 32.5H7.49998C7.00642 32.5025 6.52463 32.651 6.11533 32.9268C5.70603 33.2026 5.38753 33.5935 5.19998 34.05C5.00853 34.5053 4.95623 35.0071 5.04966 35.492C5.1431 35.977 5.37809 36.4234 5.72498 36.775L15.725 46.775C15.9574 47.0093 16.2339 47.1953 16.5385 47.3222C16.8432 47.4492 17.17 47.5145 17.5 47.5145C17.83 47.5145 18.1568 47.4492 18.4614 47.3222C18.7661 47.1953 19.0426 47.0093 19.275 46.775C19.5093 46.5426 19.6953 46.2661 19.8222 45.9614C19.9491 45.6568 20.0145 45.33 20.0145 45C20.0145 44.67 19.9491 44.3432 19.8222 44.0386C19.6953 43.7339 19.5093 43.4574 19.275 43.225L13.525 37.5H42.5C43.163 37.5 43.7989 37.2366 44.2677 36.7678C44.7366 36.2989 45 35.663 45 35C45 34.337 44.7366 33.7011 44.2677 33.2322C43.7989 32.7634 43.163 32.5 42.5 32.5Z" fill="#ECF589"/>
</svg>
