<svg width="180" height="120" viewBox="0 0 180 120" fill="none" xmlns="http://www.w3.org/2000/svg">
<path d="M83.629 73.3702C83.7056 73.3807 83.7222 73.3837 83.7968 73.3934C85.0438 73.5629 86.2692 73.7876 87.2071 74.2069C88.0764 74.5907 88.5859 75.0764 89.0511 75.9422C89.7585 77.2551 89.8046 79.0944 89.1654 80.4865C88.6878 81.5223 87.6395 82.3909 86.6825 82.8513C85.6886 83.3331 84.7094 83.5626 83.5863 83.6908C81.6221 83.9071 79.5008 83.5001 77.7333 82.6453C76.6876 82.1346 75.4108 81.2552 74.7666 80.1224C74.293 79.2924 74.308 78.2126 74.8843 77.4237C75.8029 76.1665 77.7703 75.8897 79.2521 75.9422C80.3818 75.986 82.4159 76.3352 83.4886 76.7168C83.7859 76.8242 84.8823 77.2514 85.0737 77.4473C85.2084 77.5835 85.2958 77.7815 85.2353 77.9646C84.9902 78.7142 83.1686 79.1094 82.6426 79.1887C81.2344 79.4044 80.5038 78.8715 78.9029 78.2394C78.5055 78.0838 77.9759 77.9111 77.5713 77.8737C76.8445 77.8045 75.9667 78.0081 75.8279 78.8014C75.759 79.2103 76.2385 79.5927 76.6042 79.7535C77.4629 80.1224 78.161 80.255 79.0062 80.2664C81.5029 80.3075 84.3088 79.8964 86.351 78.4495C86.6305 78.2499 86.9051 77.9579 86.908 77.5898C86.9169 76.8464 85.6135 76.3918 85.6135 76.3918C84.2379 75.8183 81.6962 75.5392 80.3868 75.4313C79.0127 75.3124 76.8506 75.1344 76.3315 75.058C75.7971 74.9817 75.2165 74.8738 74.7536 74.6664C74.2887 74.4564 73.8338 73.9863 73.6988 73.4662C73.4594 72.5287 73.7649 71.3784 74.2855 70.6295C75.65 68.6677 78.8464 67.9227 81.2343 67.6268C83.5455 67.3392 87.2819 67.3421 89.5519 68.5484C89.9024 68.7363 90.0814 68.911 90.0082 69.2857C89.8603 69.9891 89.3316 70.4424 88.6908 70.6411C88.0186 70.855 86.6281 70.9384 86.0173 70.9769C83.2805 71.1303 79.9732 71.0498 77.3664 71.7607C77.1622 71.819 76.8094 71.9141 76.6947 72.0422C76.2867 72.4851 77.4521 72.6117 77.7017 72.6623C77.7759 72.6801 77.7903 72.6826 77.8677 72.691L83.629 73.3702ZM67.3475 61.1666C67.3475 61.1666 67.7926 60.4989 68.1656 59.9924C68.8448 59.07 70.0739 57.7908 70.9995 56.9988C71.2827 56.7569 71.6165 56.4829 71.6165 56.4829C71.6165 56.4829 71.0944 56.5369 70.7985 56.5974C70.0962 56.734 69.0665 57.4184 68.5519 57.8607C67.7029 58.5875 66.7692 59.769 67.1917 60.8188C67.253 60.9671 67.3475 61.1666 67.3475 61.1666ZM72.0673 62.4296C73.4086 62.3371 74.665 61.951 75.8347 61.3022C76.9819 60.6602 78.6692 59.4086 78.4942 57.9371C78.441 57.4608 78.1292 57.1012 77.7355 56.9334C77.2239 56.7117 76.9571 56.7475 76.3036 56.9417C75.8288 57.0806 75.6148 57.1649 75.1665 57.4215C73.8507 58.1859 71.9851 59.822 70.9722 61.1277C70.7385 61.4356 70.5018 61.78 70.3165 62.0161C70.1996 62.1616 70.1088 62.2952 70.1202 62.3308C70.1606 62.4788 71.5435 62.4652 72.0673 62.4296ZM68.6523 64.938C68.514 65.0844 68.3676 65.4372 68.2159 65.6926C68.1348 65.8293 67.9845 66.0053 67.8851 66.0759C67.536 66.3326 67.2403 66.3445 66.9033 66.0479C66.4307 65.6299 66.1574 64.9834 66.138 64.3545C66.1279 64.0801 66.175 63.7765 66.1231 63.5451C66.0371 63.1545 65.6462 62.7521 65.4355 62.3787C65.188 61.9388 64.9878 61.1717 64.9629 60.6764C64.878 59.1322 65.692 57.7096 66.7494 56.5877C67.8144 55.4531 69.2076 54.5102 70.7227 53.8683C72.155 53.265 74.2538 52.8538 75.8266 53.3985C76.3386 53.5739 77.0519 54.0097 77.4104 54.4662C77.4866 54.5609 77.5486 54.6633 77.6267 54.7135C77.6966 54.7581 77.8795 54.7756 78.025 54.8024C78.5267 54.8893 79.2489 55.2691 79.544 55.5221C80.1367 56.0334 80.4614 56.5222 80.6116 57.2315C80.9129 58.6588 80.091 60.2246 79.1549 61.1777C77.5519 62.8179 75.9689 63.9711 73.9183 64.7739C73.0176 65.1258 71.6148 65.4545 70.593 65.3625C70.2756 65.3362 69.9497 65.2526 69.6407 65.2321C69.483 65.2185 68.9064 65.0698 68.8448 65.0279C68.7684 64.9692 68.6696 64.9181 68.6523 64.938ZM70.4837 68.1024C70.5462 68.1129 70.6424 68.1409 70.7252 68.1727C71.4441 68.4462 71.7399 69.1115 71.917 69.8423C72.3274 71.5393 72.5025 75.2935 72.5708 76.763C72.6209 77.866 72.6485 78.9511 72.6947 80.0414C72.7339 80.9646 72.8075 82.1921 72.6151 83.057C72.5452 83.3682 72.3371 83.73 72.0391 83.9152C71.6978 84.1337 70.9209 84.1503 70.4939 84.0623C69.4413 83.8446 69.0993 83.1678 68.949 82.1269C68.592 79.643 68.7639 74.7682 68.9747 72.7112C69.0447 72.0318 69.3006 69.8549 69.6553 68.9422C69.7765 68.6344 70.0344 68.0145 70.4837 68.1024ZM38.4626 72.2351C38.4626 72.2351 36.8961 72.346 35.8179 72.4656C34.4462 72.6133 31.8687 73.0583 30.3809 73.5896C29.9347 73.7494 29.0282 74.1288 28.9494 74.5876C28.8666 75.0633 29.1618 75.4352 29.4901 75.82C29.6799 76.0434 30.7544 77.077 31.0557 77.3282C32.3186 78.3826 34.8794 80.0087 36.7655 80.7983C37.4135 81.0664 38.4855 81.4502 38.4855 81.4502C38.4855 81.4502 38.4059 78.398 38.4201 75.3914C38.4284 73.8053 38.4626 72.2351 38.4626 72.2351ZM67.187 73.4498C67.2767 74.2697 67.066 75.8201 67.0294 76.0246C66.9627 76.4959 66.6073 77.5831 66.5483 77.7158C66.2614 78.3765 65.9785 78.9179 65.6787 79.4579C65.165 80.3824 63.9435 81.848 63.2184 82.4752C60.5219 84.806 56.3475 86.133 52.7664 86.5701C50.3364 86.8636 47.5442 86.8206 44.9694 86.3441C44.0832 86.1829 42.7645 85.879 42.7645 85.879C42.7645 85.879 42.7688 86.4063 42.7266 86.7771C42.7061 86.9463 42.5787 87.3916 42.5072 87.5359C42.32 87.9226 42.0127 88.1221 41.5657 88.2079C41.0263 88.3081 40.4541 88.3414 39.9557 88.1283C39.1372 87.784 38.8434 87.0183 38.7008 86.1352C38.5855 85.4289 38.4647 84.2012 38.4647 84.2012C38.4647 84.2012 37.8524 83.9112 37.3419 83.6564C35.7739 82.8838 34.2846 81.9477 32.9817 80.985C32.6207 80.7155 31.0699 79.4168 30.7276 79.0943C29.7678 78.1831 28.9044 77.2766 28.2475 76.1134C27.7369 75.2046 27.5898 74.3981 27.9782 73.4352C28.5138 72.0931 30.438 71.0826 31.7549 70.5068C32.7215 70.08 35.7271 69.0986 36.9756 68.9167C37.5653 68.8324 38.48 68.6686 38.5362 68.632C38.5592 68.6144 38.5751 68.5995 38.5917 68.5805C38.6205 68.5399 38.6691 67.2114 38.6597 66.7254C38.6475 66.2476 39.0133 63.1092 39.1309 62.4456C39.1922 62.0867 39.464 60.7051 39.7415 60.3425C39.923 60.0974 40.2439 60.1172 40.5056 60.2781C41.9376 61.1685 42.3727 64.2566 42.4791 65.8279C42.5428 66.7852 42.5745 68.2252 42.5745 68.2252C42.5745 68.2252 44.2172 68.1766 45.2277 68.2053C46.2097 68.2281 47.292 68.3831 48.3113 68.5455C49.6161 68.7547 52.1595 69.3095 53.6182 70.049C54.8193 70.658 55.9437 71.684 56.3079 72.7698C56.6463 73.7652 56.5957 74.454 56.0802 75.3524C55.5006 76.3667 54.4042 77.1207 53.2927 77.1837C52.9619 77.2028 51.7168 77.0373 51.3337 76.7407C51.1835 76.6225 51.1912 76.4091 51.2997 76.2644C51.3408 76.2136 51.9227 75.9041 52.2663 75.7236C52.4285 75.6369 52.5794 75.5304 52.7154 75.4065C53.0008 75.1552 53.2576 74.8786 53.229 74.5543C53.1895 74.1334 52.7441 73.8737 52.3196 73.7068C50.3277 72.9155 46.3506 72.2586 44.4288 72.1449C43.6765 72.1007 42.6065 72.0629 42.6065 72.0629L42.8328 82.6754C42.8328 82.6754 43.7174 82.844 44.4145 82.9569C44.8146 83.0176 46.5095 83.1702 46.9599 83.1812C50.3893 83.2718 54.2169 82.9647 57.3641 81.4796C58.7458 80.8293 60.0134 80.0198 60.9731 78.9238C62.238 77.4737 62.9004 75.4892 62.7251 73.4163C62.5329 71.1524 60.9396 68.465 59.6673 66.8287C56.3056 62.5055 50.5433 58.9493 45.4736 56.8643C40.2979 54.7371 35.1826 53.5134 29.6897 53.3085C28.2737 53.256 25.1861 53.3275 23.6254 53.7592C23.4025 53.8221 23.1778 53.8971 22.9708 53.9436C22.8072 53.9836 22.5496 54.0919 22.4788 54.1491C22.4511 54.1724 22.425 54.1977 22.4009 54.2247C22.4009 54.2247 22.4971 54.2779 22.589 54.3168C22.7544 54.3889 23.4503 54.4321 23.8104 54.498C24.1326 54.5587 24.4681 54.7279 24.6009 54.9639C24.727 55.1884 24.7428 55.3653 24.592 55.5525C24.2384 55.9826 22.9074 55.9101 22.3212 55.8173C21.7122 55.7202 20.9538 55.5339 20.8145 55.0035C20.6529 54.3789 20.9496 53.7667 21.2702 53.2006C21.9142 52.0682 22.8366 51.4792 24.1874 51.1103C26.1061 50.5823 28.5287 50.2132 30.3405 50.144C34.4412 49.989 38.3222 50.7061 42.2954 51.9124C44.5693 52.6 47.5464 53.7538 49.7259 54.8032C51.2898 55.5573 53.7539 56.9439 55.1381 57.8502C55.5747 58.1383 58.1294 60.0154 58.5262 60.3454C59.3541 61.0222 60.4369 61.995 61.221 62.773C62.7379 64.2763 64.6248 66.5806 65.5414 68.4095C65.7619 68.8475 65.9328 69.2783 66.2173 69.7859C66.3152 69.9599 66.7339 71 66.8036 71.3004C66.8725 71.5977 66.9736 72.0347 66.9879 72.052C67.0081 72.2117 67.2022 73.1053 67.187 73.4498ZM118.739 71.1033C116.819 71.5461 111.769 71.792 111.769 71.792L111.132 73.7866C111.132 73.7866 113.656 73.5712 115.492 73.763C115.492 73.763 116.087 73.6939 116.157 74.4382C116.18 75.1325 116.098 75.8774 116.098 75.8774C116.098 75.8774 116.06 76.3281 115.421 76.4428C114.729 76.5581 109.981 76.7417 109.981 76.7417L109.213 79.3417C109.213 79.3417 108.927 79.9428 109.567 79.7712C110.162 79.612 115.136 78.6786 115.784 78.8129C116.478 78.9853 117.247 79.9109 117.025 80.7544C116.76 81.8 111.795 84.9661 108.772 84.7452C108.772 84.7452 107.183 84.8476 105.841 82.7036C104.59 80.6604 106.314 76.7918 106.314 76.7918C106.314 76.7918 105.524 74.9859 106.097 74.3737C106.097 74.3737 106.438 74.0644 107.431 73.9945L108.648 71.4771C108.648 71.4771 107.262 71.5725 106.438 70.5529C105.67 69.5856 105.605 69.141 106.194 68.8739C106.824 68.5629 112.596 67.5095 116.568 67.6431C116.568 67.6431 117.948 67.5076 119.145 69.9018C119.145 69.902 119.725 70.8702 118.739 71.1033ZM103.801 80.7825C103.292 81.9798 101.947 83.2575 100.277 82.4633C98.6277 81.6674 96.0012 76.2918 96.0012 76.2918C96.0012 76.2918 95.0041 74.2873 94.8124 74.339C94.8124 74.339 94.5969 73.9475 94.4648 76.138C94.3275 78.3192 94.4913 82.5723 93.6212 83.2418C92.7969 83.913 91.7989 83.6458 91.2813 82.8615C90.8108 82.0889 90.615 80.2531 90.8718 77.0287C91.1735 73.7981 91.9239 70.361 92.8828 69.2907C93.8402 68.2276 94.609 68.9993 94.9086 69.2793C94.9086 69.2793 96.1894 70.4402 98.3015 73.849L98.6742 74.4795C98.6742 74.4795 100.594 77.7 100.794 77.6925C100.794 77.6925 100.951 77.8405 101.091 77.7342C101.292 77.6766 101.211 76.6439 101.211 76.6439C101.211 76.6439 100.813 73.1342 99.0617 67.1937C99.0617 67.1937 98.797 66.4529 98.976 65.7588C99.1538 65.0574 99.8569 65.3866 99.8569 65.3866C99.8569 65.3866 102.571 66.7512 103.888 71.1696C105.197 75.5894 104.317 79.5763 103.801 80.7825ZM133.008 78.1363C131.773 80.2917 128.285 84.805 123.651 83.7394C122.12 87.451 120.834 91.2056 120.099 96.8238C120.099 96.8238 119.937 97.9156 119.03 97.5364C118.131 97.2216 116.65 95.7267 116.35 93.6585C116.028 90.9417 117.237 86.3491 119.709 81.083C118.988 79.9109 118.497 78.2364 118.917 75.8519C118.917 75.8519 119.538 71.4241 123.985 67.4332C123.985 67.4332 124.518 66.9728 124.827 67.1146C125.168 67.2574 125.01 68.6982 124.74 69.3988C124.459 70.0954 122.48 73.5227 122.48 73.5227C122.48 73.5227 121.245 75.8382 121.592 77.6645C123.925 74.0788 129.226 66.8481 132.512 69.1283C133.616 69.918 134.125 71.6359 134.125 73.487C134.126 75.113 133.734 76.8411 133.008 78.1363ZM132.049 72.4574C132.049 72.4574 131.866 71.0318 130.473 72.6024C129.274 73.9277 127.112 76.4109 125.371 79.7837C127.197 79.5786 128.959 78.5878 129.492 78.0831C130.357 77.3148 132.375 75.2302 132.049 72.4574ZM158.541 72.1329H150.046C149.877 69.2458 149.529 66.4335 148.981 63.5372C148.954 63.3922 148.877 63.2611 148.764 63.1667C148.65 63.0722 148.507 63.0204 148.36 63.02H146.402C146.317 63.0202 146.233 63.0392 146.157 63.0755C146.08 63.1119 146.013 63.1647 145.959 63.2302C145.905 63.296 145.866 63.3729 145.845 63.4555C145.824 63.5381 145.822 63.6244 145.838 63.7081C146.394 66.5108 146.747 69.2693 146.921 72.1356H138.748C138.368 72.1356 138.058 72.444 138.058 72.8232V74.5894C138.059 74.7725 138.131 74.9479 138.261 75.0774C138.39 75.2068 138.565 75.2797 138.748 75.2801H147.038C147.043 75.716 147.047 76.1063 147.047 76.4725C147.047 79.018 146.937 81.1148 146.681 83.4812C146.671 83.5712 146.68 83.6624 146.708 83.7485C146.737 83.8346 146.783 83.9137 146.844 83.9803C146.904 84.047 146.977 84.1005 147.058 84.1371C147.14 84.1737 147.228 84.1926 147.317 84.1927H149.134C149.304 84.193 149.469 84.1297 149.595 84.0151C149.722 83.9005 149.801 83.7429 149.817 83.5731C150.065 81.1907 150.172 79.0678 150.172 76.4724C150.172 76.1075 150.168 75.7158 150.163 75.28H158.541C158.921 75.28 159.231 74.9694 159.231 74.5893V72.8231C159.23 72.6402 159.158 72.4648 159.028 72.3354C158.899 72.206 158.724 72.1332 158.541 72.1329Z" fill="#A3A3A3"/>
<path d="M44.9603 48.4649C44.901 48.5526 44.8629 48.6528 44.849 48.7577C44.835 48.8626 44.8456 48.9693 44.8799 49.0694C44.9144 49.1696 44.9712 49.2607 45.046 49.3357C45.1208 49.4108 45.2116 49.4678 45.3117 49.5027L46.8343 50.0151C46.9227 50.0435 47.0148 50.0583 47.1077 50.059C47.2467 50.0592 47.3837 50.0252 47.5064 49.9599C47.6292 49.8947 47.734 49.8002 47.8116 49.6848C52.7992 42.3575 59.5495 36.2568 67.3338 32.042C75.3701 27.6902 84.4752 25.3883 93.6675 25.3883C104.77 25.3883 115.483 28.6634 124.648 34.859C133.591 40.9023 140.536 49.3338 144.733 59.2422C144.794 59.3869 144.897 59.5104 145.028 59.5971C145.159 59.6839 145.312 59.7301 145.469 59.73H147.288C147.392 59.7296 147.494 59.7038 147.585 59.6549C147.677 59.606 147.755 59.5354 147.813 59.4493C147.871 59.3632 147.908 59.264 147.918 59.1605C147.929 59.0571 147.914 58.9525 147.875 58.8562C143.547 48.2025 136.229 39.1207 126.709 32.596C116.963 25.9162 105.537 22.3848 93.6675 22.3848C74.0446 22.3848 55.8357 32.1347 44.9603 48.4649Z" fill="#A3A3A3"/>
</svg>
