<svg width="180" height="120" viewBox="0 0 180 120" fill="none" xmlns="http://www.w3.org/2000/svg">
<path d="M26.3142 58.9161H20.7693V52.089H26.4711V50.3564C26.4711 41.9581 30.2894 39.0322 37.8222 39.0322C39.8622 39.0322 41.4314 39.3572 42.6342 39.5744L42.0591 46.2924C41.2748 46.0216 40.4899 45.8586 39.0776 45.8586C36.6716 45.8586 35.7299 47.5925 35.7299 50.3561V52.0895H42.4253V58.9164H35.7299V80.3163H26.3142V58.9161ZM47.3418 39.6825H56.7572V80.3158H47.3418V39.6825ZM64.8128 40.3325H74.2285V47.4841H64.8128V40.3325ZM64.8128 52.0893H74.2285V80.3156H64.8128V52.0893ZM102.528 60.1615C100.801 59.0786 99.0754 58.5906 96.826 58.5906C92.7459 58.5906 89.6075 61.5163 89.6075 66.3925C89.6075 70.8896 93.2692 73.8145 97.3491 73.8145C99.4941 73.8145 101.639 73.3274 103.208 72.4605L103.417 79.7202C101.063 80.5335 98.2386 80.9668 95.7279 80.9668C86.7302 80.9668 79.8781 75.5489 79.8781 66.2302C79.8781 56.8572 86.7302 51.4397 95.7277 51.4397C98.5526 51.4397 101.063 51.9275 103.208 53.0109L102.528 60.1615ZM116.756 63.9546H116.861L124.707 52.089H135.012L125.544 65.0375L135.797 80.3158H124.393L116.861 66.3383H116.756V80.3158H107.341V39.6825H116.756V63.9546Z" fill="#A3A3A3"/>
<path d="M158.759 59.8909C157.713 59.5664 156.667 59.5664 155.569 59.5664C151.175 59.5664 148.716 62.8707 148.716 68.3972V80.316H139.301V52.0895H147.879V57.2907H147.984C149.605 53.7146 151.959 51.4395 156.04 51.4395C157.137 51.4395 158.288 51.602 159.231 51.7642L158.759 59.8909Z" fill="#A3A3A3"/>
</svg>
