<svg width="48" height="48" viewBox="0 0 48 48" fill="none" xmlns="http://www.w3.org/2000/svg">
<path fill-rule="evenodd" clip-rule="evenodd" d="M19.5 12H28.5C32.6415 12 36 15.3585 36 19.5V28.5C36 32.6415 32.6415 36 28.5 36H19.5C15.3585 36 12 32.6415 12 28.5V19.5C12 15.3585 15.3585 12 19.5 12ZM28.5 33.75C31.395 33.75 33.75 31.395 33.75 28.5V19.5C33.75 16.605 31.395 14.25 28.5 14.25H19.5C16.605 14.25 14.25 16.605 14.25 19.5V28.5C14.25 31.395 16.605 33.75 19.5 33.75H28.5Z" fill="#A3A3A3"/>
<path fill-rule="evenodd" clip-rule="evenodd" d="M18 24C18 20.6865 20.6865 18 24 18C27.3135 18 30 20.6865 30 24C30 27.3135 27.3135 30 24 30C20.6865 30 18 27.3135 18 24ZM20.25 24C20.25 26.067 21.933 27.75 24 27.75C26.067 27.75 27.75 26.067 27.75 24C27.75 21.9315 26.067 20.25 24 20.25C21.933 20.25 20.25 21.9315 20.25 24Z" fill="#A3A3A3"/>
<path d="M30.4509 18.351C30.8924 18.351 31.2504 17.993 31.2504 17.5515C31.2504 17.1099 30.8924 16.752 30.4509 16.752C30.0093 16.752 29.6514 17.1099 29.6514 17.5515C29.6514 17.993 30.0093 18.351 30.4509 18.351Z" fill="#A3A3A3"/>
</svg>
