<svg width="48" height="48" viewBox="0 0 48 48" fill="none" xmlns="http://www.w3.org/2000/svg">
<path d="M38.25 14.8412C37.1901 15.3231 36.0609 15.6425 34.8834 15.7976C36.0947 15.048 37.0191 13.8702 37.4538 12.4505C36.3244 13.1483 35.0777 13.6412 33.7488 13.9163C32.6765 12.7329 31.1481 12 29.4809 12C26.2461 12 23.642 14.7212 23.642 18.0573C23.642 18.5373 23.6811 18.9987 23.7774 19.4382C18.9199 19.1927 14.6217 16.7797 11.7343 13.104C11.2302 14.0105 10.9345 15.048 10.9345 16.1649C10.9345 18.2622 11.9766 20.1213 13.5298 21.1975C12.5911 21.1791 11.6702 20.8966 10.89 20.4517C10.89 20.4702 10.89 20.4942 10.89 20.5182C10.89 23.4609 12.9153 25.9053 15.5712 26.4683C15.0956 26.6031 14.5772 26.6677 14.0392 26.6677C13.6652 26.6677 13.2876 26.6455 12.9331 26.5642C13.6901 28.9624 15.8383 30.7255 18.3927 30.7827C16.4047 32.3944 13.8807 33.3656 11.1483 33.3656C10.6691 33.3656 10.2096 33.3433 9.75 33.2824C12.3382 35.0122 15.4055 36 18.7133 36C29.465 36 35.343 26.7693 35.343 18.768C35.343 18.5003 35.3342 18.2418 35.3217 17.9853C36.4812 17.1322 37.4556 16.0671 38.25 14.8412Z" fill="#A3A3A3"/>
</svg>
