<svg width="56" height="60" viewBox="0 0 56 60" fill="none" xmlns="http://www.w3.org/2000/svg">
<path d="M32.4535 52.0223L31.1797 49.81C31.0455 49.542 30.9786 49.2736 30.9786 49.0057C30.9786 48.7377 31.0455 48.4693 31.1797 48.2013L32.4535 45.9891V43.3078C32.4535 42.7045 32.7888 42.1682 33.2579 41.8997L35.5371 40.559L36.8109 38.3468C37.0789 37.8773 37.6152 37.5424 38.219 37.5424H40.8335L43.1127 36.2686C43.5822 36.0006 44.2523 36.0006 44.7217 36.2686L46.6656 37.4082C44.7885 33.6541 40.9671 31.1064 36.4087 31.1064L12.1407 31.106C5.90629 31.106 0.676788 36.1339 0.676788 42.5698V53.1619H32.3861L32.3866 52.0224L32.4535 52.0223Z" fill="#ECF589"/>
<path d="M24.2748 0C17.0346 0 11.1352 5.89953 11.1352 13.1396C11.1352 20.3798 17.0347 26.2792 24.2748 26.2792C31.5146 26.2787 37.4144 20.3797 37.4144 13.1396C37.4144 5.89941 31.5149 0 24.2748 0Z" fill="#7B75F0"/>
<path d="M42.9786 44.8491H45.66V45.7208H42.9786V44.8491Z" fill="#7B75F0"/>
<path d="M55.1127 48.2679L54.0399 46.3241V44.1786C54.0399 43.7091 53.772 43.2401 53.3694 42.9721L51.4923 41.8994L50.3527 39.9555C50.0847 39.5533 49.6821 39.2849 49.1462 39.2849H46.9339L44.99 38.2122C44.5879 37.9442 44.0515 37.9442 43.6494 38.2122L41.7055 39.2849H39.4932C39.0237 39.2849 38.5547 39.5529 38.2868 39.9555L37.2804 41.8326L35.2696 42.9722C34.8675 43.2401 34.5991 43.6428 34.5991 44.1786V46.4578L33.5263 48.3349C33.3921 48.536 33.3253 48.8044 33.3253 49.0055C33.3253 49.2735 33.3921 49.475 33.5263 49.6761L34.5991 51.5532V53.8324C34.5991 54.3019 34.867 54.7709 35.2696 55.0388L37.2135 56.1784L38.2863 58.0555C38.5542 58.4577 38.9568 58.7261 39.4927 58.7261H41.705L43.6489 59.7988C43.85 59.933 44.1184 59.9999 44.3195 59.9999C44.5205 59.9999 44.789 59.933 44.99 59.7988L46.9339 58.7261H49.1462C49.6157 58.7261 50.0847 58.4581 50.3527 58.0555L51.4923 56.1116L53.3693 55.0389C53.7715 54.7709 54.0399 54.3683 54.0399 53.8324V51.687L55.1795 49.7431C55.3811 49.2067 55.3811 48.6708 55.1127 48.2682L55.1127 48.2679ZM49.8836 52.8268C49.8836 53.1621 49.6157 53.4301 49.2804 53.4301H39.4257C39.0904 53.4301 38.8225 53.1621 38.8225 52.8268V46.3909C38.8225 46.0556 39.0904 45.7876 39.4257 45.7876H42.1744V44.5138C42.1744 44.3127 42.3755 44.1116 42.5766 44.1116H46.0627C46.2638 44.1116 46.4649 44.3127 46.4649 44.5138V45.7876H49.2136C49.5489 45.7876 49.8168 46.0556 49.8168 46.3909V52.8268H49.8836Z" fill="#7B75F0"/>
</svg>
