<svg width="180" height="120" viewBox="0 0 180 120" fill="none" xmlns="http://www.w3.org/2000/svg">
<path d="M39.8081 76.298C37.7252 76.6638 35.6057 76.7735 33.4132 77.0655L26.7256 57.4786V77.9062C24.6428 78.1253 22.7426 78.4177 20.7692 78.71V41.29H26.3239L33.9247 62.5218V41.29H39.8081V76.298ZM51.3192 54.9936C53.585 54.9936 57.0566 54.884 59.1394 54.884V60.7307C56.5448 60.7307 53.5119 60.7307 51.3192 60.8404V69.5378C54.7544 69.3186 58.1894 69.026 61.6608 68.9163V74.5436L45.4722 75.8229V41.29H61.6608V47.1369H51.3192V54.9936ZM83.4039 47.137H77.3378V74.0326C75.3644 74.0326 73.3911 74.0326 71.4912 74.1055V47.137H65.4251V41.29H83.4041L83.4039 47.137ZM92.905 54.5918H100.908V60.4385H92.905V73.7038H87.1673V41.29H103.503V47.1369H92.905V54.5918ZM113.004 68.5876C116.329 68.6605 119.691 68.9167 122.943 69.0991V74.873C117.718 74.5439 112.492 74.2154 107.157 74.1055V41.29H113.004V68.5876ZM127.877 75.275C129.74 75.3848 131.714 75.4944 133.614 75.7134V41.29H127.877V75.275ZM159.231 41.29L151.812 59.0865L159.231 78.71C157.038 78.4177 154.845 78.0157 152.653 77.6502L148.451 66.8337L144.175 76.7735C142.055 76.4077 140.009 76.298 137.89 76.0057L145.418 58.867L138.621 41.29H144.906L148.743 51.1201L152.836 41.29H159.231Z" fill="#A3A3A3"/>
</svg>
