<svg width="60" height="60" viewBox="0 0 60 60" fill="none" xmlns="http://www.w3.org/2000/svg">
<path d="M52.5 15H42.5V12.5C42.5 8.25 39.25 5 35 5H25C20.75 5 17.5 8.25 17.5 12.5V15H7.5C6 15 5 16 5 17.5V27.5C5 31.75 8.25 35 12.5 35H47.5C51.75 35 55 31.75 55 27.5V17.5C55 16 54 15 52.5 15ZM37.5 15H22.5V12.5C22.5 11 23.5 10 25 10H35C36.5 10 37.5 11 37.5 12.5V15Z" fill="#AC79D6"/>
<path d="M42.5 38.75V42.5C42.5 44 41.5 45 40 45C38.5 45 37.5 44 37.5 42.5V38.75H22.5V42.5C22.5 44 21.5 45 20 45C18.5 45 17.5 44 17.5 42.5V38.75H12.5C10.75 38.75 9 38.25 7.5 37.5V47.5C7.5 51.75 10.75 55 15 55H45C49.25 55 52.5 51.75 52.5 47.5V37.5C51 38.25 49.25 38.75 47.5 38.75H42.5Z" fill="#ECF589"/>
</svg>
