<svg width="180" height="120" viewBox="0 0 180 120" fill="none" xmlns="http://www.w3.org/2000/svg">
<path d="M75.283 55.3268H79.6642V69.0943H75.283V55.3268Z" fill="#A3A3A3"/>
<path d="M80.5865 55.3268H84.8049V57.2122H84.8863C85.9036 55.7337 87.2193 54.9335 89.1319 54.9335C92.1431 54.9335 93.92 57.0902 93.92 60.1556V69.1079H89.5388V61.0373C89.5388 59.5859 88.8063 58.5958 87.3821 58.5958C85.9307 58.5958 84.9677 59.803 84.9677 61.4985V69.1079H80.5865V55.3268Z" fill="#A3A3A3"/>
<path d="M77.4804 54.2824C78.9337 54.2824 80.1118 53.1042 80.1118 51.651C80.1118 50.1977 78.9337 49.0195 77.4804 49.0195C76.0271 49.0195 74.8489 50.1977 74.8489 51.651C74.8489 53.1042 76.0271 54.2824 77.4804 54.2824Z" fill="#A3A3A3"/>
<path d="M124.738 55.1229C124.615 55.1094 124.466 55.1094 124.303 55.1094C122.635 55.1094 121.509 55.8418 120.533 57.4695H120.451V55.3264H116.26V69.0939H120.641V62.9087C120.641 60.0467 122.228 58.7174 124.738 58.948V55.1229Z" fill="#A3A3A3"/>
<path d="M146.25 60.4133C144.5 60.0878 142.94 59.9522 142.94 58.9891C142.94 58.1346 143.768 57.7277 144.853 57.7277C146.06 57.7277 146.901 58.1075 147.064 59.3418H151.092C150.875 56.629 148.786 54.9335 144.88 54.9335C141.625 54.9335 138.939 56.4391 138.939 59.3418C138.939 62.57 141.489 63.2075 143.89 63.6144C145.721 63.94 147.389 64.0756 147.389 65.3099C147.389 66.1916 146.562 66.6799 145.233 66.6799C143.917 66.6799 143.035 66.1238 142.764 64.9844H138.586C138.898 67.8193 141.38 69.5284 145.26 69.5284C148.868 69.5284 151.526 67.9685 151.526 64.9573C151.513 61.4306 148.664 60.8203 146.25 60.4133Z" fill="#A3A3A3"/>
<path d="M131.777 66.3543C129.973 66.3543 128.956 65.2014 128.685 63.3431H138.573C138.6 60.5489 137.8 58.1481 136.158 56.6425C134.978 55.5709 133.418 54.9199 131.452 54.9199C127.26 54.9199 124.385 58.0667 124.385 62.1766C124.385 66.3408 127.179 69.4876 131.723 69.4876C133.473 69.4876 134.87 69.0264 136.023 68.2262C137.23 67.3988 138.044 66.2051 138.329 64.9708H134.056C133.69 65.8389 132.944 66.3543 131.777 66.3543ZM131.533 58.0396C132.957 58.0396 133.975 59.084 134.137 60.7253H128.712C129.01 59.0976 129.878 58.0396 131.533 58.0396Z" fill="#A3A3A3"/>
<path d="M159.231 65.8525C159.027 65.8661 158.756 65.8661 158.498 65.8661C157.562 65.8661 156.966 65.5948 156.966 64.5232V58.0668H159.231V55.3268H156.966V50.9728H152.693V55.3268H151.35V58.0668H152.693V65.4592C152.693 68.4161 154.524 69.2571 157.074 69.2571C158.051 69.2571 158.783 69.1893 159.231 69.0943V65.8525Z" fill="#A3A3A3"/>
<path d="M101.746 65.8525C101.57 65.8525 101.367 65.8661 101.177 65.8661C100.241 65.8661 99.644 65.5948 99.644 64.5232V58.0668H101.746V55.3268H99.644V50.9728H95.3713V55.3268H93.9471V58.0668H95.3713V65.4592C95.3713 68.4161 97.2025 69.2571 99.7525 69.2571C100.621 69.2571 101.299 69.2028 101.746 69.1214V65.8525Z" fill="#A3A3A3"/>
<path d="M101.529 62.1902C101.529 58.0803 104.405 54.9335 108.596 54.9335C110.563 54.9335 112.123 55.5845 113.303 56.6561C114.944 58.1617 115.744 60.549 115.717 63.3567H105.829C106.1 65.215 107.118 66.3679 108.922 66.3679C110.075 66.3679 110.834 65.8525 111.201 64.998H115.473C115.175 66.2323 114.375 67.4124 113.167 68.2533C112.014 69.0536 110.617 69.5148 108.868 69.5148C104.324 69.5012 101.529 66.3544 101.529 62.1902ZM111.295 60.7389C111.133 59.0976 110.115 58.0532 108.691 58.0532C107.023 58.0532 106.168 59.0976 105.87 60.7389H111.295Z" fill="#A3A3A3"/>
<path d="M59.8743 49.8741H67.4837C69.8167 49.8741 71.5393 50.5252 72.733 51.651C73.9673 52.8039 74.6726 54.4452 74.6726 56.3848C74.6726 60.0742 72.1226 62.6785 68.1619 62.6785H64.3097V69.1079H59.8743V49.8741ZM67.6736 58.9077C69.3962 58.9077 70.3593 57.8904 70.3593 56.3577C70.3593 54.825 69.3691 53.889 67.6736 53.889H64.3097V58.9213H67.6736V58.9077Z" fill="#A3A3A3"/>
<path d="M20.7692 59.9932C20.7692 50.8918 28.1345 43.5129 37.2495 43.5129C46.351 43.5129 53.7298 50.8918 53.7434 60.0068C53.7434 69.1083 46.3645 76.4871 37.2631 76.4871C35.554 76.4871 33.9263 76.2294 32.38 75.7546C33.0582 74.6559 34.062 72.8655 34.4282 71.4277C34.6317 70.6546 35.4591 67.5077 35.4591 67.5077C35.9881 68.5386 37.5615 69.4067 39.2299 69.4067C44.1943 69.4067 47.7752 64.8356 47.7752 59.1523C47.7752 53.6995 43.3262 49.6303 37.6157 49.6303C30.4946 49.6303 26.7238 54.4049 26.7238 59.5999C26.7238 62.0143 27.9988 65.0255 30.0335 66.0021C30.3454 66.1513 30.5218 66.0835 30.5896 65.7851C30.6438 65.5545 30.9287 64.4287 31.0508 63.9132C31.0914 63.7505 31.0779 63.6013 30.9422 63.4385C30.264 62.6111 29.7215 61.0919 29.7215 59.6813C29.7215 56.0461 32.475 52.533 37.1681 52.533C41.2238 52.533 44.0587 55.2865 44.0587 59.2336C44.0587 63.6826 41.807 66.7752 38.8772 66.7752C37.2631 66.7752 36.0423 65.4324 36.4357 63.7912C36.9104 61.8244 37.8056 59.7084 37.8056 58.2977C37.8056 57.0363 37.1274 55.9783 35.7168 55.9783C34.062 55.9783 32.7327 57.6873 32.7327 59.9797C32.7327 61.431 33.221 62.4212 33.221 62.4212C33.221 62.4212 31.5933 69.3253 31.2949 70.6139C30.9694 72.0381 31.0914 74.0456 31.2407 75.3477C25.1097 72.9469 20.7692 66.9787 20.7692 59.9932Z" fill="#A3A3A3"/>
</svg>
