<svg width="60" height="60" viewBox="0 0 60 60" fill="none" xmlns="http://www.w3.org/2000/svg">
<g clip-path="url(#clip0_1_232)">
<path d="M34.4535 52.0223L33.1797 49.81C33.0455 49.542 32.9786 49.2736 32.9786 49.0057C32.9786 48.7377 33.0455 48.4693 33.1797 48.2013L34.4535 45.9891V43.3078C34.4535 42.7045 34.7888 42.1682 35.2579 41.8997L37.5371 40.559L38.8109 38.3468C39.0789 37.8773 39.6152 37.5424 40.219 37.5424H42.8335L45.1127 36.2686C45.5822 36.0006 46.2523 36.0006 46.7217 36.2686L48.6656 37.4082C46.7885 33.6541 42.9671 31.1064 38.4087 31.1064L14.1407 31.106C7.90629 31.106 2.67679 36.1339 2.67679 42.5698V53.1619H34.3861L34.3866 52.0223L34.4535 52.0223Z" fill="#ECF589"/>
<path d="M26.2748 0C19.0346 0 13.1352 5.89953 13.1352 13.1396C13.1352 20.3798 19.0347 26.2792 26.2748 26.2792C33.5146 26.2787 39.4144 20.3797 39.4144 13.1396C39.4144 5.89941 33.5149 0 26.2748 0V0Z" fill="#7B75F0"/>
<path d="M44.9786 44.8491H47.66V45.7208H44.9786V44.8491Z" fill="#7B75F0"/>
<path d="M57.1127 48.2679L56.0399 46.3241V44.1786C56.0399 43.7091 55.772 43.2401 55.3694 42.9721L53.4923 41.8994L52.3527 39.9555C52.0847 39.5533 51.6821 39.2849 51.1462 39.2849H48.9339L46.99 38.2122C46.5879 37.9442 46.0515 37.9442 45.6494 38.2122L43.7055 39.2849H41.4932C41.0237 39.2849 40.5547 39.5529 40.2868 39.9555L39.2804 41.8326L37.2696 42.9722C36.8675 43.2401 36.5991 43.6428 36.5991 44.1786V46.4578L35.5263 48.3349C35.3921 48.536 35.3253 48.8044 35.3253 49.0055C35.3253 49.2735 35.3921 49.475 35.5263 49.6761L36.5991 51.5532V53.8324C36.5991 54.3019 36.867 54.7709 37.2696 55.0388L39.2135 56.1784L40.2863 58.0555C40.5542 58.4577 40.9568 58.7261 41.4927 58.7261H43.705L45.6489 59.7988C45.85 59.933 46.1184 59.9999 46.3195 59.9999C46.5205 59.9999 46.789 59.933 46.99 59.7988L48.9339 58.7261H51.1462C51.6157 58.7261 52.0847 58.4581 52.3527 58.0555L53.4923 56.1116L55.3693 55.0389C55.7715 54.7709 56.0399 54.3683 56.0399 53.8324V51.687L57.1795 49.7431C57.3811 49.2067 57.3811 48.6708 57.1127 48.2682L57.1127 48.2679ZM51.8836 52.8268C51.8836 53.1621 51.6157 53.4301 51.2804 53.4301H41.4257C41.0904 53.4301 40.8225 53.1621 40.8225 52.8268V46.3909C40.8225 46.0556 41.0904 45.7876 41.4257 45.7876H44.1744V44.5138C44.1744 44.3127 44.3755 44.1116 44.5766 44.1116H48.0627C48.2638 44.1116 48.4649 44.3127 48.4649 44.5138V45.7876H51.2136C51.5489 45.7876 51.8168 46.0556 51.8168 46.3909V52.8268H51.8836Z" fill="#7B75F0"/>
</g>
<defs>
<clipPath id="clip0_1_232">
<rect width="60" height="60" fill="white"/>
</clipPath>
</defs>
</svg>
