<svg width="60" height="60" viewBox="0 0 60 60" fill="none" xmlns="http://www.w3.org/2000/svg">
<g clip-path="url(#clip0_1_241)">
<path d="M4.54418 51.3749C4.16509 51.8804 4.2916 52.6386 4.79675 53.0177L13.9595 59.7795C14.4651 60.1586 15.2232 60.0321 15.6024 59.5269L19.2045 54.661L8.14593 46.509L4.54418 51.3749Z" fill="#7B75F0"/>
<path d="M54.9082 35.1978C54.2131 34.4396 53.0758 34.1866 52.0647 34.5027L43.7231 37.2197V37.8518C43.6601 40.1898 41.9537 42.2122 39.6788 42.7177L39.1732 42.8442C36.1401 43.5393 33.0436 43.9184 29.947 44.1079L27.4195 44.2344C26.6613 44.2975 25.9662 43.6658 25.9662 42.9072C25.9032 42.149 26.5348 41.4539 27.2935 41.4539L29.8209 41.3274C32.7909 41.2009 35.6975 40.7587 38.6046 40.1266L39.1102 40.0001C40.1844 39.7475 40.9425 38.8629 40.9425 37.7882C40.9425 37.1561 40.753 36.5244 40.3104 36.0819C39.8679 35.6393 39.2993 35.3867 38.6676 35.3237L25.334 35.0076C23.8807 34.9446 22.364 35.4502 21.1633 36.3349L10.1051 44.4235L21.7324 52.9546L32.9806 53.9023C34.9394 54.0919 36.8984 53.4598 38.4151 52.2594L54.6555 39.2419C55.2876 38.7363 55.6032 38.0411 55.6666 37.2831C55.7301 36.5244 55.4771 35.7663 54.9085 35.1977L54.9082 35.1978Z" fill="#ECF589"/>
<path d="M23.8177 17.8833V27.2356C23.8177 28.9419 25.145 30.2687 26.8508 30.2687H50.1687C51.875 30.2687 53.2018 28.9415 53.2018 27.2356V17.8833C49.9157 18.3889 46.3771 18.7049 43.2175 18.831V19.0205C43.2175 20.9164 41.7007 22.4327 39.8683 22.4327H37.2773C35.3814 22.4327 33.9281 20.916 33.9281 19.0205V18.831C30.6425 18.7049 27.1034 18.3889 23.8176 17.8833H23.8177Z" fill="#7B75F0"/>
<path d="M22.3012 15.1659C25.2712 15.7346 29.1259 16.2402 33.8653 16.4297C33.8653 14.5338 35.382 13.0805 37.2145 13.0805H39.8054C41.6378 13.0805 43.1546 14.5972 43.1546 16.4297C47.8309 16.2401 51.6858 15.7345 54.6556 15.1659C55.0347 15.1029 55.3507 14.7234 55.3507 14.2813V9.60496C55.3507 7.89866 53.9605 6.57186 52.3176 6.57186H45.6189V4.36036C45.6189 1.95895 43.6601 0 41.2585 0H35.6975C33.2961 0 31.3372 1.95884 31.3372 4.36036V6.57231L24.6389 6.57187C22.9326 6.57187 21.6058 7.89912 21.6058 9.60497V14.2813C21.6058 14.7238 21.9219 15.1029 22.301 15.166L22.3012 15.1659ZM34.8132 4.36034C34.8132 3.85475 35.2557 3.47567 35.7609 3.47567H41.3219C41.8275 3.47567 42.2065 3.91823 42.2065 4.36034V6.57229L34.8131 6.57184L34.8132 4.36034Z" fill="#7B75F0"/>
<path d="M39.8053 20.0317C40.3739 20.0317 40.8165 19.5892 40.8165 19.0206V16.4931C40.8165 15.9245 40.3739 15.4819 39.8053 15.4819H37.2778C36.7092 15.4819 36.2667 15.9245 36.2667 16.4931V19.0206C36.2667 19.5892 36.7092 20.0317 37.2778 20.0317H39.8053Z" fill="#7B75F0"/>
</g>
<defs>
<clipPath id="clip0_1_241">
<rect width="60" height="60" fill="white"/>
</clipPath>
</defs>
</svg>
