<svg width="180" height="120" viewBox="0 0 180 120" fill="none" xmlns="http://www.w3.org/2000/svg">
<path d="M41.5332 39.2364C30.0658 39.2364 20.7692 48.5327 20.7692 60.0002C20.7692 71.468 30.0658 80.7637 41.5332 80.7637C53.0019 80.7637 62.2975 71.468 62.2975 60.0002C62.2975 48.5335 53.0019 39.2374 41.533 39.2374L41.5332 39.2364ZM51.0555 69.1837C50.9669 69.3289 50.8505 69.4552 50.713 69.5553C50.5755 69.6555 50.4197 69.7276 50.2543 69.7674C50.0889 69.8073 49.9174 69.8141 49.7493 69.7875C49.5813 69.761 49.4202 69.7015 49.2752 69.6126C44.4 66.6348 38.2628 65.9604 31.0351 67.6117C30.7004 67.6878 30.3492 67.6279 30.0587 67.4452C29.7681 67.2625 29.562 66.9719 29.4856 66.6373C29.4476 66.4716 29.4426 66.3 29.471 66.1324C29.4993 65.9648 29.5605 65.8044 29.6509 65.6605C29.7413 65.5165 29.8592 65.3918 29.9979 65.2935C30.1366 65.1952 30.2933 65.1252 30.4591 65.0876C38.3687 63.2805 45.1533 64.0586 50.6265 67.4034C51.2365 67.7778 51.4299 68.5737 51.0555 69.1837ZM53.597 63.53C53.1283 64.2917 52.1316 64.5322 51.3704 64.0635C45.789 60.6329 37.2812 59.6394 30.6795 61.6433C29.8233 61.9019 28.9191 61.4194 28.6592 60.5647C28.5352 60.1538 28.5792 59.7105 28.7816 59.332C28.984 58.9535 29.3282 58.6708 29.7388 58.5457C37.2797 56.2576 46.6544 57.3659 53.0639 61.3046C53.8251 61.7732 54.0656 62.77 53.597 63.5302V63.53ZM53.8152 57.6427C47.123 53.6678 36.0818 53.3023 29.6924 55.2415C28.6664 55.5527 27.5814 54.9735 27.2705 53.9475C27.1209 53.4545 27.1733 52.9224 27.4161 52.4681C27.6589 52.0137 28.0721 51.6744 28.565 51.5248C35.8996 49.2982 48.0925 49.7284 55.7973 54.3023C56.0168 54.4322 56.2087 54.6041 56.3617 54.8083C56.5147 55.0124 56.626 55.2447 56.6891 55.4919C56.7522 55.7391 56.7659 55.9964 56.7295 56.2489C56.693 56.5014 56.6071 56.7443 56.4766 56.9635C55.9312 57.8864 54.736 58.1906 53.8161 57.6427H53.8152ZM77.2612 58.4044C73.6759 57.5494 73.0387 56.9494 73.0387 55.6886C73.0387 54.4974 74.1594 53.6958 75.8281 53.6958C77.4447 53.6958 79.0465 54.3045 80.7276 55.5576C80.7771 55.5956 80.8416 55.6107 80.9036 55.6008C80.9348 55.5963 80.9647 55.5855 80.9916 55.5691C81.0184 55.5526 81.0417 55.5308 81.0598 55.5051L82.8103 53.0375C82.8449 52.9886 82.8595 52.9283 82.8512 52.869C82.8429 52.8096 82.8124 52.7557 82.7657 52.7181C80.7648 51.1132 78.5134 50.3329 75.8802 50.3329C72.0097 50.3329 69.3045 52.6559 69.3045 55.9797C69.3045 59.5439 71.6377 60.806 75.6694 61.7802C79.0985 62.5704 79.6787 63.2324 79.6787 64.4156C79.6787 65.7273 78.5084 66.543 76.624 66.543C74.5313 66.543 72.8229 65.8364 70.9137 64.185C70.8661 64.1448 70.8049 64.1244 70.7426 64.128C70.6782 64.133 70.6212 64.1627 70.5815 64.2098L68.6177 66.5455C68.5359 66.6447 68.5458 66.7885 68.64 66.8728C70.8617 68.8564 73.5941 69.9027 76.5447 69.9027C80.7152 69.9027 83.4104 67.6241 83.4104 64.0958C83.4178 61.1187 81.6351 59.4698 77.2687 58.4076L77.2612 58.4044ZM92.8473 54.8686C91.0398 54.8686 89.557 55.5807 88.3322 57.0399V55.3975C88.3324 55.3354 88.308 55.2757 88.2643 55.2316C88.2206 55.1875 88.1612 55.1625 88.0991 55.1622H84.8881C84.7592 55.1622 84.6551 55.2678 84.6551 55.3975V73.6468C84.6551 73.7757 84.7592 73.8823 84.8881 73.8823H88.0991C88.228 73.8823 88.3322 73.7757 88.3322 73.6468V67.8869C89.557 69.2581 91.0398 69.93 92.8473 69.93C96.207 69.93 99.6089 67.3439 99.6089 62.4001C99.6139 57.4552 96.212 54.8683 92.8498 54.8683L92.8473 54.8686ZM95.8748 62.4001C95.8748 64.9165 94.3251 66.6744 92.1035 66.6744C89.9091 66.6744 88.2528 64.8371 88.2528 62.4001C88.2528 59.9627 89.9091 58.1259 92.1035 58.1259C94.2879 58.1257 95.8748 59.9228 95.8748 62.3998V62.4001ZM108.324 54.8686C103.998 54.8686 100.608 58.2 100.608 62.4539C100.608 66.6621 103.975 69.9573 108.272 69.9573C112.614 69.9573 116.013 66.6373 116.013 62.4001C116.013 58.1772 112.636 54.8691 108.324 54.8691V54.8686ZM108.324 66.6992C106.023 66.6992 104.288 64.8495 104.288 62.3988C104.288 59.9369 105.964 58.1504 108.272 58.1504C110.588 58.1504 112.334 59.9994 112.334 62.4526C112.334 64.914 110.648 66.6992 108.324 66.6992ZM125.252 55.1622H121.719V51.5505C121.719 51.5198 121.713 51.4893 121.701 51.4609C121.689 51.4324 121.672 51.4066 121.651 51.3847C121.629 51.3629 121.603 51.3456 121.575 51.3337C121.547 51.3218 121.516 51.3156 121.485 51.3155H118.275C118.146 51.3155 118.039 51.4211 118.039 51.5505V55.1622H116.497C116.368 55.1622 116.264 55.2678 116.264 55.3975V58.1564C116.264 58.2858 116.368 58.3917 116.497 58.3917H118.039V65.5314C118.039 68.4151 119.475 69.878 122.309 69.878C123.459 69.878 124.414 69.6399 125.314 69.1291C125.388 69.0895 125.433 69.0101 125.433 68.9258V66.2976C125.433 66.2182 125.391 66.1414 125.321 66.0992C125.287 66.0776 125.249 66.0653 125.209 66.0636C125.168 66.0618 125.129 66.0707 125.093 66.0893C124.476 66.3992 123.878 66.543 123.209 66.543C122.18 66.543 121.719 66.0744 121.719 65.0281V58.3929H125.252C125.381 58.3929 125.485 58.2873 125.485 58.1576V55.399C125.486 55.3682 125.481 55.3375 125.47 55.3088C125.458 55.2801 125.442 55.2539 125.42 55.2319C125.398 55.2099 125.373 55.1925 125.344 55.1808C125.316 55.1691 125.285 55.1632 125.254 55.1637L125.252 55.1622ZM137.56 55.1763V54.7327C137.56 53.4278 138.061 52.8458 139.182 52.8458C139.851 52.8458 140.389 52.9787 140.992 53.1796C141.066 53.2029 141.143 53.1912 141.202 53.1468C141.233 53.1251 141.257 53.0963 141.274 53.0631C141.291 53.0299 141.299 52.9931 141.299 52.9559V50.2508C141.3 50.2003 141.284 50.1509 141.254 50.1103C141.224 50.0696 141.181 50.0398 141.133 50.0254C140.498 49.8362 139.685 49.6421 138.465 49.6421C135.502 49.6421 133.933 51.3118 133.933 54.4689V55.1483H132.39C132.261 55.1483 132.155 55.2539 132.155 55.3833V58.1564C132.155 58.2858 132.261 58.3917 132.39 58.3917H133.933V69.4019C133.933 69.5333 134.039 69.6374 134.168 69.6374H137.377C137.508 69.6374 137.612 69.5333 137.612 69.4019V58.3924H140.61L145.202 69.4019C144.681 70.5573 144.168 70.7879 143.469 70.7879C142.903 70.7879 142.306 70.6193 141.698 70.2846C141.641 70.2555 141.574 70.2493 141.512 70.2672C141.45 70.2895 141.398 70.3342 141.373 70.3937L140.285 72.7814C140.233 72.8955 140.278 73.0269 140.387 73.0864C141.522 73.7013 142.546 73.9642 143.813 73.9642C146.184 73.9642 147.495 72.8583 148.648 69.8879L154.217 55.4976C154.232 55.4621 154.237 55.4234 154.233 55.3853C154.228 55.3471 154.215 55.3106 154.192 55.2792C154.171 55.2477 154.143 55.222 154.11 55.2041C154.076 55.1863 154.039 55.177 154.002 55.177H150.659C150.557 55.177 150.468 55.2408 150.436 55.3347L147.012 65.1124L143.263 55.3283C143.246 55.284 143.216 55.2457 143.177 55.2187C143.138 55.1917 143.092 55.1772 143.045 55.177H137.56V55.1763ZM130.424 55.1622H127.213C127.084 55.1622 126.978 55.2678 126.978 55.3975V69.4019C126.978 69.5333 127.084 69.6374 127.213 69.6374H130.424C130.553 69.6374 130.66 69.5333 130.66 69.4019V55.3985C130.66 55.3675 130.654 55.3369 130.642 55.3083C130.63 55.2797 130.613 55.2537 130.591 55.2318C130.569 55.21 130.543 55.1927 130.514 55.1809C130.486 55.1691 130.455 55.1631 130.424 55.1632V55.1622ZM128.837 48.7852C127.565 48.7852 126.534 49.8146 126.534 51.0864C126.534 51.3889 126.593 51.6884 126.709 51.9678C126.825 52.2473 126.994 52.5012 127.208 52.7151C127.422 52.9289 127.676 53.0986 127.956 53.2143C128.235 53.3301 128.535 53.3896 128.837 53.3896C130.109 53.3896 131.138 52.3589 131.138 51.0864C131.138 49.8149 130.107 48.7852 128.837 48.7852ZM156.96 59.6652C155.69 59.6652 154.701 58.6449 154.701 57.4059C154.701 56.1669 155.702 55.1349 156.972 55.1349C158.241 55.1349 159.231 56.155 159.231 57.393C159.231 58.632 158.229 59.6652 156.96 59.6652ZM156.972 55.3595C155.814 55.3595 154.939 56.2794 154.939 57.4059C154.939 58.5318 155.809 59.4393 156.96 59.4393C158.117 59.4393 158.993 58.5201 158.993 57.393C158.993 56.267 158.122 55.3595 156.972 55.3595ZM157.473 57.6253L158.113 58.5199H157.572L156.997 57.6992H156.503V58.5199H156.052V56.1485H157.108C157.661 56.1485 158.023 56.4304 158.023 56.905C158.026 57.2938 157.8 57.5313 157.475 57.6253H157.473ZM157.091 56.5554H156.503V57.3054H157.091C157.384 57.3054 157.56 57.1619 157.56 56.93C157.56 56.6861 157.384 56.5554 157.091 56.5554Z" fill="#A3A3A3"/>
</svg>
