<svg width="78" height="22" viewBox="0 0 78 22" fill="none" xmlns="http://www.w3.org/2000/svg">
<path d="M14 21H17.864L22.148 6.048H18.312L15.792 15.512L13.132 6.048H9.296L6.552 15.512L4.004 6.048H0.224L4.48 21H8.372L11.172 11.284L14 21ZM30.2164 21.252C33.8564 21.252 36.4604 19.32 37.3004 15.932H33.4364C32.9884 17.416 31.8404 18.256 30.1324 18.256C28.1444 18.256 26.9684 16.912 26.7164 14.476H37.3284C38.0284 9.604 34.8924 5.768 30.1604 5.768C25.8484 5.768 22.7404 9.016 22.7404 13.468C22.7404 18.144 25.7364 21.252 30.2164 21.252ZM30.0764 8.624C31.9244 8.624 33.1004 9.94 33.2124 12.012H26.7724C27.1084 9.8 28.2564 8.624 30.0764 8.624ZM43.8552 21V0.895998H39.9352V21H43.8552ZM53.6454 21.28C57.6494 21.28 60.4494 18.732 60.8974 14.616H56.8094C56.5854 16.66 55.4374 17.836 53.6454 17.836C51.6014 17.836 50.3414 16.212 50.3414 13.524C50.3414 10.864 51.6294 9.212 53.6454 9.212C55.4094 9.212 56.6134 10.444 56.8094 12.432H60.8974C60.4214 8.4 57.5374 5.768 53.6454 5.768C49.4454 5.768 46.3654 9.044 46.3654 13.524C46.3654 18.088 49.3334 21.28 53.6454 21.28ZM69.9495 21.28C74.2895 21.28 77.5375 17.864 77.5375 13.524C77.5375 9.156 74.2895 5.768 69.9495 5.768C65.6095 5.768 62.3615 9.156 62.3615 13.524C62.3615 17.864 65.6095 21.28 69.9495 21.28ZM69.9495 17.836C68.0175 17.836 66.3655 16.296 66.3655 13.524C66.3655 10.752 68.0175 9.24 69.9495 9.24C71.8815 9.24 73.5335 10.752 73.5335 13.524C73.5335 16.296 71.8815 17.836 69.9495 17.836Z" fill="white"/>
</svg>
